<svg xmlns="http://www.w3.org/2000/svg" width="14" height="14" fill="none"><path stroke="#222F5D" stroke-linecap="round" stroke-linejoin="round" stroke-width=".875" d="M10.523 7.904c-.245.239-.385.583-.35.95.053.63.63 1.091 1.26 1.091h1.109v.695a2.198 2.198 0 0 1-2.194 2.193H3.652a2.198 2.198 0 0 1-2.194-2.193V6.714c0-1.208.986-2.193 2.194-2.193h6.696c1.208 0 2.194.985 2.194 2.193v.84h-1.179c-.326 0-.624.128-.84.35Z"/><path stroke="#222F5D" stroke-linecap="round" stroke-linejoin="round" stroke-width=".875" d="M1.458 7.239V4.573c0-.694.426-1.313 1.074-1.558l4.631-1.75c.724-.274 1.5.263 1.5 1.039V4.52M13.16 8.15v1.2c0 .322-.257.584-.584.596h-1.143c-.63 0-1.208-.461-1.26-1.091a1.172 1.172 0 0 1 .35-.95c.216-.222.513-.35.84-.35h1.213a.599.599 0 0 1 .583.594ZM4.083 7h4.084"/></svg>