<svg xmlns="http://www.w3.org/2000/svg" width="14" height="14" fill="none"><path fill="#222F5D" d="M12.833 13.271H1.167a.44.44 0 0 1-.438-.438.44.44 0 0 1 .438-.437h11.666a.44.44 0 0 1 .438.438.44.44 0 0 1-.438.437Z"/><path fill="#222F5D" d="M2.158 12.833h-.875l.03-7.017c0-.496.227-.957.618-1.26l4.083-3.18a1.61 1.61 0 0 1 1.972 0l4.083 3.174c.385.303.619.776.619 1.266v7.017h-.875V5.821a.747.747 0 0 0-.28-.577L7.449 2.07a.735.735 0 0 0-.898 0L2.468 5.25a.727.727 0 0 0-.28.571l-.03 7.012Z"/><path fill="#222F5D" d="M9.917 13.27H4.083a.44.44 0 0 1-.437-.437V7.291c0-.723.589-1.312 1.312-1.312h4.084c.723 0 1.312.59 1.312 1.313v5.541a.44.44 0 0 1-.437.438Zm-5.396-.874h4.958V7.29a.44.44 0 0 0-.437-.437H4.958a.44.44 0 0 0-.437.438v5.104Z"/><path fill="#222F5D" d="M5.833 10.791a.44.44 0 0 1-.437-.437v-.875a.44.44 0 0 1 .437-.438.44.44 0 0 1 .438.438v.875a.44.44 0 0 1-.438.438ZM7.875 4.813h-1.75a.44.44 0 0 1-.438-.438.44.44 0 0 1 .438-.438h1.75a.44.44 0 0 1 .438.438.44.44 0 0 1-.438.438Z"/></svg>